<?xml version="1.0" encoding="utf-8"?>
<!-- Generator: Adobe Illustrator 25.2.1, SVG Export Plug-In . SVG Version: 6.00 Build 0)  -->
<svg version="1.1" id="Layer_1" xmlns:serif="http://www.serif.com/"
	 xmlns="http://www.w3.org/2000/svg" xmlns:xlink="http://www.w3.org/1999/xlink" x="0px" y="0px" viewBox="0 0 864 864"
	 style="enable-background:new 0 0 864 864;" xml:space="preserve">
<style type="text/css">
	.st0{fill:#FFFFFF;stroke:#000000;stroke-miterlimit:10;}
</style>
<path class="st0" d="M432,0c238.4,0,432,193.6,432,432S670.4,864,432,864S0,670.4,0,432S193.6,0,432,0z M355.9,661.8
	c191.2,0,295.7-158.4,295.7-295.7c0-4.5,0-9.1-0.2-13.4c20.3-14.7,37.9-33,51.9-53.9c-18.5,8.2-38.6,13.8-59.7,16.4
	c21.6-12.9,37.9-33.2,45.7-57.5c-20,11.9-42.2,20.5-65.9,25.2c-19-20.3-45.9-32.8-75.9-32.8c-57.3,0-103.9,46.6-103.9,103.9
	c0,8.2,0.9,16.2,2.8,23.7C360,373.4,283.5,332,232.2,269.1c-8.8,15.3-14,33.2-14,52.2c0,36,18.3,67.9,46.3,86.4
	c-17-0.4-33-5.2-47-12.9v1.3c0,50.4,35.8,92.2,83.4,101.9c-8.6,2.4-17.9,3.7-27.4,3.7c-6.7,0-13.1-0.6-19.6-1.9
	c13.1,41.4,51.5,71.3,97,72.2c-35.6,27.8-80.4,44.4-129.1,44.4c-8.4,0-16.6-0.4-24.8-1.5C242.5,644.5,297.3,661.8,355.9,661.8
	L355.9,661.8z"/>
</svg>
