<svg id="Layer_1" data-name="Layer 1" xmlns="http://www.w3.org/2000/svg" xmlns:xlink="http://www.w3.org/1999/xlink" viewBox="0 0 865.51 865.51"><defs><style>.cls-1,.cls-4{stroke:#231f20;stroke-miterlimit:10;stroke-width:20px;}.cls-1{fill:url(#linear-gradient);}.cls-2{fill:url(#radial-gradient);}.cls-3{fill:#fff;}.cls-4{fill:none;}</style><linearGradient id="linear-gradient" x1="10" y1="855.51" x2="855.51" y2="10" gradientUnits="userSpaceOnUse"><stop offset="0" stop-color="#fff"/><stop offset="0" stop-color="#f5f6f6"/><stop offset="0" stop-color="#53c3c1"/><stop offset="1" stop-color="#7655a3"/></linearGradient><radialGradient id="radial-gradient" cx="443.62" cy="424.73" fx="247.13385317956448" fy="628.6072694693383" r="283.14" gradientTransform="matrix(0, 1.06, -1.04, 0, 884.69, -40.69)" gradientUnits="userSpaceOnUse"><stop offset="0.61" stop-color="#fff" stop-opacity="0"/><stop offset="0.85" stop-color="#fff" stop-opacity="0.7"/><stop offset="1" stop-color="#fff" stop-opacity="0"/></radialGradient></defs><rect id="Background" class="cls-1" x="10" y="10" width="845.51" height="845.51"/><ellipse id="Crescent" class="cls-2" cx="444" cy="430.57" rx="236.58" ry="228.82" transform="translate(-116.35 691.5) rotate(-69)"/><path id="Letter" class="cls-3" d="M657.54,653.68a265.59,265.59,0,0,0,55.43-71q36.59-68.26,36.6-151,0-69.54-23.81-128.11T659.63,202.31q-42.33-42.7-100.08-66.46T434.78,112.06q-67.9,0-125.66,23.8T209.05,202.44q-42.35,42.78-66.13,101.41T119.11,432.14q0,69.66,23.81,128.29t66.13,101.42q42.31,42.76,100.07,66.56t125.66,23.81h420V653.68ZM284.13,587.37a221.85,221.85,0,0,1-41.25-70.76,253.26,253.26,0,0,1,0-168.93,222,222,0,0,1,41.25-70.77q26.78-30.74,65.8-48.9T438,209.85q48.32,0,87.35,18.16t66.17,48.9a224,224,0,0,1,42,70.77,247.33,247.33,0,0,1,0,168.93,223.89,223.89,0,0,1-42,70.76q-27.15,30.75-66.17,48.9T438,654.42q-49.06,0-88.1-18.15T284.13,587.37Z" transform="translate(0.75 0.75)"/><rect id="Background-2" data-name="Background" class="cls-4" x="10" y="10" width="845.51" height="845.51"/></svg>