<svg id="Layer_1" data-name="Layer 1" xmlns="http://www.w3.org/2000/svg" xmlns:xlink="http://www.w3.org/1999/xlink" viewBox="0 0 450 600"><defs><style>.cls-1{fill:#53c3c1;}.cls-2,.cls-3{fill:#ebccb3;}.cls-2{stroke:#c99e83;stroke-width:0.5px;}.cls-11,.cls-14,.cls-15,.cls-16,.cls-17,.cls-18,.cls-19,.cls-2,.cls-20,.cls-21,.cls-22{stroke-miterlimit:10;}.cls-4{fill:#c99e83;}.cls-5,.cls-6,.cls-7{opacity:0.3;}.cls-5{fill:url(#radial-gradient);}.cls-6{fill:url(#radial-gradient-2);}.cls-7{fill:url(#radial-gradient-3);}.cls-8{fill:#441e16;}.cls-9{fill:#d79680;}.cls-10{fill:#e2b4a2;}.cls-11{fill:#3a4156;}.cls-11,.cls-13{stroke:#263145;}.cls-12{fill:#263145;}.cls-13,.cls-14,.cls-15,.cls-16,.cls-17,.cls-18,.cls-19,.cls-20,.cls-21,.cls-22{fill:none;}.cls-13,.cls-14,.cls-19,.cls-21,.cls-22{stroke-linecap:round;}.cls-13{stroke-linejoin:bevel;}.cls-14{stroke:#fff;}.cls-15{stroke:#fcccb8;}.cls-16{stroke:#ffedcb;}.cls-17{stroke:#f9eda1;}.cls-18{stroke:#fbf3d4;stroke-linecap:square;stroke-width:2px;}.cls-19{stroke:#f0dd90;}.cls-19,.cls-21{stroke-width:6px;}.cls-20{stroke:#fdd495;stroke-width:4px;}.cls-21{stroke:#eca178;}.cls-22{stroke:#fef6a6;stroke-width:5px;}.cls-23{fill:#e2989a;}.cls-24{fill:#ebdbd0;}.cls-25{fill:#e3a69c;}.cls-26{fill:#e6e7e8;}.cls-27{fill:url(#radial-gradient-4);}.cls-28{fill:#080505;}.cls-29{fill:#e3b4a1;}.cls-30{fill:#fff;}.cls-31{fill:url(#radial-gradient-5);}</style><radialGradient id="radial-gradient" cx="175.02" cy="247.18" r="16.46" gradientTransform="matrix(0, 1, -0.83, 0, 377.09, 82.39)" gradientUnits="userSpaceOnUse"><stop offset="0.04" stop-color="#fff" stop-opacity="0.6"/><stop offset="0.99" stop-color="#fff" stop-opacity="0"/></radialGradient><radialGradient id="radial-gradient-2" cx="249.95" cy="110.3" r="16.46" gradientTransform="translate(35.09 155.36) scale(1 0.83)" gradientUnits="userSpaceOnUse"><stop offset="0.04" stop-color="#fff" stop-opacity="0.6"/><stop offset="0.99" stop-color="#fff" stop-opacity="0"/></radialGradient><radialGradient id="radial-gradient-3" cx="197.2" cy="63.82" r="11.72" gradientTransform="matrix(0, -1, 0.83, 0, 175.08, 467.11)" gradientUnits="userSpaceOnUse"><stop offset="0.04" stop-color="#fff" stop-opacity="0.6"/><stop offset="0.99" stop-color="#fff" stop-opacity="0"/></radialGradient><radialGradient id="radial-gradient-4" cx="224.06" cy="213.57" r="8.03" gradientTransform="matrix(-0.93, 0.16, 0.14, 0.95, 442.44, -20.68)" gradientUnits="userSpaceOnUse"><stop offset="0" stop-color="#83cec2"/><stop offset="0.73" stop-color="#8dbcda"/><stop offset="0.96" stop-color="#9fb5d3"/><stop offset="0.99" stop-color="#aeaea6"/><stop offset="1" stop-color="#7e7c74"/></radialGradient><radialGradient id="radial-gradient-5" cx="182.27" cy="220.49" r="8.03" gradientTransform="translate(12.24) scale(0.95 1)" xlink:href="#radial-gradient-4"/></defs><rect id="Background" class="cls-1" width="450" height="599.76"/><g id="Face_and_Neck" data-name="Face and Neck"><path class="cls-2" d="M239.17,431.67c56.29-3.2,66.55-32.84,71.49-52.95a20.47,20.47,0,0,0-12.45-23.93s-6.91-.79-8.58-1.86-1.52-25.63-1.52-25.63l-114.56,7.24,1.37,18.93L151,372.17S166.43,435.8,239.17,431.67Z"/><path class="cls-3" d="M199.27,84.69c13-1.72,50.24,3.64,60.91,8.37S306.63,155,309,161.51s9.64,87.76,9.64,92.85,1,26.95-8.61,49.16-25.4,34.06-30.56,42.44-23.81,28.48-44.11,31.39-34.86-9.59-48.28-24.52-29.83-27.46-35-36.57-13.42-30.58-13.42-36S130.8,199,130.8,199s-5.51-44.79,0-55.71S188.26,86.14,199.27,84.69Z"/><path class="cls-4" d="M199.27,84.66a72.5,72.5,0,0,1,12.06-.16q6,.3,12,1c8,.89,16,2.11,23.84,3.77a88.32,88.32,0,0,1,11.65,3.17,13.51,13.51,0,0,1,5.08,3.24c1.47,1.39,2.85,2.85,4.18,4.37a235,235,0,0,1,14.69,19.17c4.63,6.59,9.08,13.29,13.42,20.08q3.25,5.08,6.39,10.25c2.07,3.45,4.15,6.89,6,10.5.23.44.43.91.63,1.39l.37,1.49c.26,1,.36,2,.55,3,.35,2,.58,4,.86,6,.51,4,1,8,1.42,12q1.31,12,2.45,24L317.1,232l1,12,.46,6c.13,2,.29,4,.26,6,.26,16.07-2.18,32.37-8.55,47.21A99.85,99.85,0,0,1,298,324c-2.44,3.21-5,6.29-7.71,9.3s-5.43,5.94-8,9c-.63.78-1.25,1.57-1.82,2.39l-1.68,2.51c-.55.85-1.18,1.64-1.76,2.45s-1.25,1.59-1.9,2.36a92.07,92.07,0,0,1-17.85,16.21,71.61,71.61,0,0,1-10.54,5.91,47.78,47.78,0,0,1-11.6,3.37,40,40,0,0,1-12.07-.18,41.22,41.22,0,0,1-11.47-3.78A59.89,59.89,0,0,1,201.46,367a97.09,97.09,0,0,1-9-8.12c-2.83-2.87-5.51-5.89-8.24-8.82-5.53-5.85-11.4-11.36-17.23-16.9-2.91-2.78-5.81-5.58-8.58-8.51a42.88,42.88,0,0,1-7.27-9.66c-1.9-3.57-3.53-7.26-5.1-11s-3-7.47-4.34-11.28a63.74,63.74,0,0,1-3.2-11.67c-.2-4-.59-8-.95-12l-2.33-24-4.93-48c-.87-8-1.54-16-1.91-24.08-.18-4-.28-8-.23-12.08a82.51,82.51,0,0,1,.89-12.05,18.55,18.55,0,0,1,1.76-5.8,33.11,33.11,0,0,1,3.57-4.89c2.59-3.09,5.4-6,8.23-8.84,5.68-5.71,11.6-11.17,17.62-16.51s12.2-10.51,18.57-15.44c3.19-2.46,6.42-4.86,9.76-7.11C190.26,89,192,88,193.71,87A19.2,19.2,0,0,1,199.27,84.66Zm0,0A19.09,19.09,0,0,0,193.74,87c-1.74,1-3.44,2.08-5.11,3.21-3.33,2.26-6.55,4.66-9.73,7.13-6.35,4.94-12.49,10.15-18.52,15.48s-11.92,10.82-17.58,16.54c-2.82,2.87-5.61,5.77-8.18,8.86a33.36,33.36,0,0,0-3.53,4.85,18.77,18.77,0,0,0-1.71,5.71,84.46,84.46,0,0,0-.84,12c0,4,.08,8,.27,12.05.4,8,1.09,16.06,2,24,1.75,16,3.33,32,5,48l2.33,24c.35,4,.75,8,.94,12a64.07,64.07,0,0,0,3.18,11.57c1.32,3.79,2.78,7.54,4.33,11.25s3.19,7.39,5.07,10.93a41.81,41.81,0,0,0,7.2,9.56c2.75,2.93,5.65,5.72,8.55,8.5,5.83,5.54,11.71,11.05,17.24,16.92,2.74,3,5.4,6,8.22,8.84a96,96,0,0,0,8.9,8.1,60.32,60.32,0,0,0,10.06,6.56A40.88,40.88,0,0,0,223.13,377a39.7,39.7,0,0,0,12,.2,47.64,47.64,0,0,0,11.52-3.32,71,71,0,0,0,10.5-5.87,91,91,0,0,0,9.45-7.48A88.89,88.89,0,0,0,275,351.9c.65-.77,1.26-1.56,1.9-2.34s1.21-1.6,1.76-2.44l1.68-2.51c.59-.83,1.21-1.62,1.85-2.4,2.57-3.1,5.34-6,8-9s5.28-6.08,7.72-9.27a97.82,97.82,0,0,0,12.24-20.72c6.32-14.83,8.73-31.09,8.44-47.14,0-2-.14-4-.28-6l-.47-6-1-12-2.25-24q-1.18-12-2.5-24-.67-6-1.44-12c-.29-2-.52-4-.86-6-.18-1-.28-2-.53-2.95l-.35-1.44c-.19-.46-.38-.91-.61-1.36-1.81-3.57-3.89-7-6-10.48s-4.2-6.87-6.35-10.26c-4.32-6.79-8.75-13.51-13.36-20.11A234.83,234.83,0,0,0,268,100.2c-1.32-1.52-2.7-3-4.15-4.36a13.25,13.25,0,0,0-5-3.21,87.45,87.45,0,0,0-11.61-3.2c-7.87-1.68-15.83-2.92-23.83-3.83-4-.46-8-.81-12-1A72.37,72.37,0,0,0,199.28,84.71Z"/><ellipse class="cls-5" cx="170.79" cy="257.41" rx="13.74" ry="16.46" transform="translate(-137.53 276.62) rotate(-60)"/><ellipse class="cls-6" cx="285.04" cy="247.42" rx="16.46" ry="13.74" transform="translate(-84.69 323.36) rotate(-52.56)"/><path class="cls-7" d="M228.34,259.65c6,0,10.87,5.84,10.87,13s-5.38,7.48-11.38,7.48-10.36-.29-10.36-7.48S222.34,259.65,228.34,259.65Z"/></g><g id="Eyebrows"><path class="cls-8" d="M150.35,214.21s7.84-11.39,24.87-15.16c14.6-3.23,28.54,3.93,30.2,4.58,1.44.56,3-7.86,2.78-8.61s-7.3-8.54-7.3-8.54l4.23,7.18-9.77-8.34,4.67,6.77-9.77-6.43,5.32,4.85A41.18,41.18,0,0,0,169,192.75C155.1,198.9,150.35,214.21,150.35,214.21Z"/><path class="cls-8" d="M297.23,207.46s-8.75-12.31-24.11-13.36-32.63,7.9-34.18,7.71c-1.17-.14-2.57-7.79-2.57-8.55s7.29-8.24,7.29-8.24l-2.26,5,7.47-6.62L244,190.64l8.39-6.58-3.81,4.6,8-5.45L253,187.3s16.09-3.27,27.76,1.84S297.23,207.46,297.23,207.46Z"/></g><path id="Hair" class="cls-8" d="M133.87,229l-2.63-4.61L120.67,161s-3-13-3-17.69,4.44-17.18,4.44-17.18l-3.59-4.68,1.48-2.86-2.33-7,5.4-6.24,8-10.26,4.57-10.3s-1-6,2.54-8.59,21.55-13.53,21.55-13.53H151.1l15.7-4.46v-2.6s6.06-.78,10.42-1.57,40.25-7.91,51.23-6.87S261.89,51.23,267.81,65a77.59,77.59,0,0,1,6.33,25s7-4.68,14.58-2.86,16.69,9.37,18.81,16.39,2.53,25.24,3.38,27.06,5.8,25.76,5.75,28.89,0,27.58,0,31.48-1.79,23.78-1.79,23.78l-9.62-26.24-7.92-10.62,1.32-4.87s-5.87-6.44-7.6-9.63c-.63-1.16-3.68-10.89-3.68-14.27s.17-10.27.17-10.27a81.27,81.27,0,0,0-21.63-17.08c-13.19-7.2-26.63-5.29-31.91-2.69s-12.59,9.28-14.28,10c-1.75-1-13.45-8.85-17.47-9.89s-15-5-28.77,5.38-14.78,11.5-19.21,17.58c-3.9,5.33-7.59,39.45-8.44,42.83s-9.14,12-9.35,15.44S133.87,229,133.87,229Z"/><g id="RightEar"><path class="cls-3" d="M314.14,207.2s.9-2.71,2.45-3.77,6.54-3.58,9-3.47a6.88,6.88,0,0,1,5.74,4.44c.77,2.34,1.87,12.62,1.1,15.3s-2.1,7.7-2.87,9-4.06,5.6-4.57,8.52-1.28,9.34-1.83,11.45-4.05,7.56-4.93,7.56C317.8,245.12,314.14,207.2,314.14,207.2Z"/><path class="cls-4" d="M314.13,207.2a11.49,11.49,0,0,1,1-2.19,5.09,5.09,0,0,1,1.65-1.77,29.51,29.51,0,0,1,4.3-2.2,22,22,0,0,1,2.28-.82,7,7,0,0,1,2.41-.32,6.85,6.85,0,0,1,4.24,2.23,6.32,6.32,0,0,1,1.3,2.06,16,16,0,0,1,.55,2.37c.27,1.59.45,3.19.6,4.79s.24,3.22.26,4.83a21.66,21.66,0,0,1-.08,2.42,11.82,11.82,0,0,1-.54,2.37c-.44,1.54-.88,3.09-1.36,4.63-.25.77-.5,1.54-.8,2.29a9.86,9.86,0,0,1-1.22,2.08,40.35,40.35,0,0,0-2.53,4.1,11.51,11.51,0,0,0-1.42,4.57c-.49,3.18-.84,6.38-1.46,9.55a8.82,8.82,0,0,1-.85,2.28c-.36.72-.75,1.43-1.17,2.12s-.86,1.36-1.34,2c-.24.32-.48.65-.75.95a6,6,0,0,1-.43.44,1.18,1.18,0,0,1-.59.34l-.11,0v-.13c-.18-4.1-.49-8.18-.81-12.27l-1-12.26Q315.26,219.45,314.13,207.2Zm0,0q1.23,12.23,2.36,24.48l1,12.26c.31,4.09.62,8.18.79,12.28l-.11-.11a2.25,2.25,0,0,0,.85-.7q.39-.45.75-.93c.47-.65.92-1.32,1.34-2s.82-1.38,1.18-2.09a8.67,8.67,0,0,0,.84-2.24c.64-3.14,1-6.35,1.52-9.53a14.86,14.86,0,0,1,.48-2.37,15.08,15.08,0,0,1,1-2.22,48.21,48.21,0,0,1,2.53-4.11,10.28,10.28,0,0,0,1.21-2.07c.29-.75.54-1.52.77-2.28.48-1.54.9-3.09,1.34-4.64a12.12,12.12,0,0,0,.52-2.34c.07-.8.08-1.6.07-2.4,0-1.61-.14-3.22-.3-4.82s-.35-3.19-.61-4.78a13.83,13.83,0,0,0-.53-2.33,6.1,6.1,0,0,0-1.24-2,6.63,6.63,0,0,0-4.12-2.19,6.5,6.5,0,0,0-2.35.3,20.37,20.37,0,0,0-2.27.8,31.37,31.37,0,0,0-4.3,2.15A5,5,0,0,0,315.2,205,12.31,12.31,0,0,0,314.15,207.2Z"/><path class="cls-9" d="M316.68,215s5.17-7.8,7.22-8.48c.9-.3,4.76-.13,5,.92s1.52,5.29,1.23,7.51a49.31,49.31,0,0,1-1.35,6c-.2,1-.1,3.53-.51,4a44.39,44.39,0,0,0-3.38,4.19c-.34.76-3.61,7.27-4.14,7.48s-2.4-3.61-2-4.43,5.42-6.12,5.93-7.29,2.39-6.82,2.25-7.31-1.62.77-2.22,2.22-1.07,3.53-1.43,4-4.71,2.62-4.88,3.13-.73,1.12-.82.69,1.18-6.59,1.25-7.66.08-4.24-.7-4.55S317.2,215.43,316.68,215Z"/></g><g id="LeftEar"><path class="cls-3" d="M133,224.81s-4.53-5.69-9.39-5.69-7.72,4.33-7.94,6.19-.55,18,0,19.15,5.51,7.24,7,9.81a45,45,0,0,1,4,12.25c.55,3.86,5.41,10.75,6.07,12.15s2.12,2.32,4.33,3.47,1.43,0,1.43,0Z"/><path class="cls-4" d="M133,224.81a20.6,20.6,0,0,0-4-3.66,10,10,0,0,0-5-1.94,8.32,8.32,0,0,0-8.14,5.93c-.19,1.79-.18,3.63-.24,5.45l-.09,5.48c0,1.83,0,3.65,0,5.48a20,20,0,0,0,.2,2.7,4.54,4.54,0,0,0,.67,1.16l.8,1.11,3.26,4.4a24.83,24.83,0,0,1,2.89,4.66A48.33,48.33,0,0,1,126.53,266a15.9,15.9,0,0,0,1.81,5.12c.83,1.63,1.76,3.2,2.72,4.75.48.78,1,1.55,1.43,2.34a5.43,5.43,0,0,0,1.66,2.1,16.6,16.6,0,0,0,2.32,1.43c.4.21.8.43,1.21.6a1.94,1.94,0,0,0,.61.17c.11,0,.1,0,.11-.07a.73.73,0,0,0-.11-.26l0,0v0l-2.72-28.65Zm0,0,2.82,28.65,2.7,28.68,0-.05a.88.88,0,0,1,.15.37.27.27,0,0,1-.09.25.38.38,0,0,1-.23.07,2.19,2.19,0,0,1-.7-.19c-.43-.19-.83-.41-1.24-.63a16.2,16.2,0,0,1-2.33-1.46,6.49,6.49,0,0,1-1-1,7.26,7.26,0,0,1-.7-1.19c-.46-.79-.94-1.56-1.42-2.34-.95-1.57-1.87-3.14-2.7-4.78a16.1,16.1,0,0,1-1.8-5.16,42,42,0,0,0-1.3-5.31,46.48,46.48,0,0,0-1.92-5.13,25.78,25.78,0,0,0-2.9-4.62L117,246.61l-.81-1.11a4.61,4.61,0,0,1-.7-1.2,21.37,21.37,0,0,1-.22-2.75c0-1.83-.06-3.65,0-5.48s0-3.66.07-5.48.07-3.65.27-5.49a6.77,6.77,0,0,1,1.22-2.48,8.92,8.92,0,0,1,1.94-1.94,7.92,7.92,0,0,1,5.18-1.6,9.89,9.89,0,0,1,5.06,2A20.51,20.51,0,0,1,133,224.8Z"/><path class="cls-9" d="M131.91,232.37s-2.87-2.66-4.17-3.77a13.52,13.52,0,0,0-4.61-2.24c-.52,0-2.87-1.31-3.56-.29s-2.07,9.7-1.79,11.22,0,6.28.63,6.93,2.38,2.8,3,3.39,4.69,3.15,5,3-2.34-3-3.2-3.94-2.46-2.43-2.62-3.24-.33-4.8.44-4.74,5.54,3.76,6.45,4.81,1.08,5.44,1.85,6.61,2.52,3.59,2.66,4.56.13,3.77.55,4.7,2,5.73,2.48,5.76.28-2-.22-2.69a18.13,18.13,0,0,1-1.77-4.3c-.11-.87-.44-4.44-.57-5.14s-1.44-5.05-1.39-5.64-2.23-8.41-1.35-9.14,1.6-.5,2-1.06a4.24,4.24,0,0,0,.56-2.51A3.89,3.89,0,0,0,131.91,232.37Z"/></g><g id="Nose"><path class="cls-10" d="M216.78,285.08a4.79,4.79,0,0,1-6.47-1.76c1.07-.7,1.92-1.4,2.62-1.26S214.7,283.66,216.78,285.08Z"/><path class="cls-10" d="M249.61,279.11a5.65,5.65,0,0,1-3.42,2.67c-1.93.64-3.79.41-4.65-.48,1.22-1.18,2.05-2.1,2.66-2.28C245.29,278.69,247.53,279,249.61,279.11Z"/><path class="cls-4" d="M255.42,264.29c2.38,1.93,4.45,4.08,6.59,5.93l1.69,1.46c.56.51,1.14,1,1.74,1.45a24,24,0,0,0,3.87,2.32q2,1,4,2c1.3.66,2.66,1.3,4,1.93l1,.53a5,5,0,0,1,1.07.72,7.82,7.82,0,0,1,1.63,1.87,14.68,14.68,0,0,1,1.16,2,8.51,8.51,0,0,1,.43,1.09,2.68,2.68,0,0,1,.19,1.21.1.1,0,0,1-.11.09.11.11,0,0,1-.07-.06l0,0a6.92,6.92,0,0,0-1.28-1.73c-.49-.55-1-1.09-1.51-1.6a9,9,0,0,0-1.56-1.3,6.29,6.29,0,0,0-.84-.46l-1-.42a31,31,0,0,1-4-2.24,29.72,29.72,0,0,1-3.65-2.74,28.46,28.46,0,0,0-3.63-2.7,21.29,21.29,0,0,0-2-1.07c-.69-.34-1.34-.61-2.06-1a14.35,14.35,0,0,1-3.36-3.23,17.84,17.84,0,0,1-2.4-3.92.11.11,0,0,1,.05-.14A.14.14,0,0,1,255.42,264.29Z"/><path class="cls-4" d="M184.43,290.65a21.83,21.83,0,0,1,2.48-2.67,28.74,28.74,0,0,1,2.67-2.3c.46-.35.95-.67,1.37-1a9.32,9.32,0,0,0,1.19-1.31,15.51,15.51,0,0,0,1.71-3.16,32.44,32.44,0,0,1,1.51-3.28c.28-.53.56-1.06.86-1.6.15-.26.31-.53.48-.8l.28-.4c.06-.07.12-.19.2-.3a46.24,46.24,0,0,1,4.08-5.9.1.1,0,0,1,.14,0,.12.12,0,0,1,0,.1,22,22,0,0,1-1,3.54,22.61,22.61,0,0,1-1.47,3.38c-.08.14-.17.28-.29.45l-.24.34-.49.71-1,1.47a29.93,29.93,0,0,1-2.2,2.87,20.72,20.72,0,0,0-2.1,2.94c-.3.53-.56,1.07-.86,1.64a9,9,0,0,1-1.11,1.57,9.42,9.42,0,0,1-1.36,1.25,16.71,16.71,0,0,1-1.49,1.05,14.92,14.92,0,0,1-3.31,1.61.1.1,0,0,1-.13-.07A.13.13,0,0,1,184.43,290.65Z"/><path class="cls-4" d="M203.6,265.09a9.26,9.26,0,0,0-2.81,5.28,12.7,12.7,0,0,0,.65,5.92,23.13,23.13,0,0,0,2.52,5.45,6.31,6.31,0,0,0,1.92,2,2.8,2.8,0,0,0,2.37.06,9.51,9.51,0,0,0,2.39-1.55,5.29,5.29,0,0,1,1.59-.93,1.79,1.79,0,0,1,.68-.08,1.7,1.7,0,0,1,.71.23,4.69,4.69,0,0,1,.76.56,18.63,18.63,0,0,0,4.82,3.41,18.4,18.4,0,0,0,11.49.91,19.81,19.81,0,0,0,5.47-2.08,23.54,23.54,0,0,0,4.7-3.61l1.11-1.07a11.12,11.12,0,0,1,1.31-1.11,3.23,3.23,0,0,1,.53-.27,3.74,3.74,0,0,1,.5-.13,7,7,0,0,1,.87-.12c.56-.05,1.09-.06,1.62-.06,2.11,0,4.19.18,6.19.24a2.43,2.43,0,0,0,.62,0,2.62,2.62,0,0,0,.57-.17,4.81,4.81,0,0,0,1.11-.68,7.31,7.31,0,0,0,1.76-2.17,5.91,5.91,0,0,0,.45-5.36,34.14,34.14,0,0,0-2.95-5.34,9.48,9.48,0,0,0-2.09-2.15,3.92,3.92,0,0,0-2.85-.79,4,4,0,0,1,3,.5A9.63,9.63,0,0,1,255,264a30.16,30.16,0,0,1,3.45,5.21,6,6,0,0,1,.71,3.3,8.55,8.55,0,0,1-.89,3.22,8.85,8.85,0,0,1-2,2.67,6.08,6.08,0,0,1-1.47,1,5,5,0,0,1-.9.3,5.36,5.36,0,0,1-.92.08c-2.12,0-4.16-.14-6.17-.09a13.79,13.79,0,0,0-1.46.09,2.33,2.33,0,0,0-1.05.26,25.09,25.09,0,0,0-2.12,2,25.61,25.61,0,0,1-5.05,3.93,21.05,21.05,0,0,1-6,2.32,23.83,23.83,0,0,1-6.42.46,16.69,16.69,0,0,1-6.29-1.63,20.47,20.47,0,0,1-5.15-3.8,3.5,3.5,0,0,0-.47-.37c-.07,0,0,0,0,0h-.08a4.31,4.31,0,0,0-1.07.63,11.37,11.37,0,0,1-2.85,1.66,4.26,4.26,0,0,1-3.61-.28,7.36,7.36,0,0,1-2.28-2.49,23.26,23.26,0,0,1-2.35-5.87,13.52,13.52,0,0,1-.25-6.29,9.15,9.15,0,0,1,1.21-2.9A10,10,0,0,1,203.6,265.09Z"/></g><g id="Shirt"><path class="cls-11" d="M244,418.73c-56.46,3.25-79.72-32-70.58-65-2.75.46-16,2.55-17.45,3.61s-2.28,3.94-4.12,4.52-26.14,4.4-29.55,6.31-4.91,5.31-7,6.37S85,382.86,82.67,382.86,80.54,379,73.93,382,59,392.2,53.9,393.68s-16,1.7-17.9,4.25,1.27,7.85,0,8.07-4.69-3-8.74-1.07-3.63,7.65-3.63,7.65S8.5,425.74,6.37,427.22s-7.93,1.49-7.93,4.89V599.68H449.76V405.15a26.39,26.39,0,0,1-6-3c-2.77-1.91-17.69-8.91-22-10.19s-3-5.09-8.95-7.21-11.51-6.15-16-6-7.46.32-10.23-1.17-6-4.25-8.52-4.46-29.84-3.39-30.48-4.24-.43-5-5.54-7-11.73.06-13.64,0-7.89-4.52-13-4.73-9.17-.42-10.66-.42-7.78-3.2-11.3-3c-2.24.15,8.17,2.34,10.45,5.52C325,388.8,274.46,417,244,418.73Z"/><path class="cls-12" d="M410.45,390.87s11.43,3.44,14.2,7.93,3.46,18.11,4.33,22,7.54,20.38,7.48,23-2.32,16.34-2.32,16.34-1.56-20.61-3-22.52-13-23.15-13.74-27S410.45,390.87,410.45,390.87Z"/><path class="cls-12" d="M349.06,372.1s2.51-.76,5.28,3.72,6.86,16.57,7.73,20.5,5.21,14.51,5.15,17.11-.49,28-.49,28-3.22-34.43-4.66-36.33-5.32-9.34-6.07-13.21S349.06,372.1,349.06,372.1Z"/><path class="cls-12" d="M119.38,373.85s-4.64,8.81-6.87,13.3-5.52,16.57-6.22,20.49-4.2,14.52-4.15,17.11,11.42,28,11.42,28-9.33-29.3-8.17-31.21,4.45-17.86,5.06-21.73S119.38,373.85,119.38,373.85Z"/><path class="cls-12" d="M36,406s2.23,1,0,5.49,9.83,20.37,9.83,20.37-5.66-14.56-5-18.43S36,406,36,406Z"/><path class="cls-12" d="M407.47,413.43s3.9,7.63,3.9,9.81-2.65,54.65-2.65,54.65-.63-39.08-1.25-43.13S407.47,413.43,407.47,413.43Z"/><path class="cls-12" d="M419.19,545.78l6.1-62.75s.24,58.39-1.84,69.76-4.26,51.38-4.26,51.38a272.74,272.74,0,0,1-3-35.66C415.91,549.05,419.19,545.78,419.19,545.78Z"/><path class="cls-12" d="M-1.56,482.72s13.83,10.9,18.67,14.79,17.51,18.06,17.51,18.06l-1.56-8.25s-8-6.07-15.63-13.08a196.32,196.32,0,0,0-19-14.64Z"/><path class="cls-12" d="M-1.56,515.57s15.55,5.61,20.08,7.79,19.23,9.81,19.23,9.81l-1.1-3.74s-15.39-7.32-18.56-8.25-19.65-7.94-19.65-7.94Z"/><path class="cls-12" d="M-1.56,542s19.61,6.54,23.68,8.25,22.19,11.37,22.19,11.37l-1.4-5.45s-12.82-6.38-19.86-8.87l-24.61-8.72Z"/><path class="cls-12" d="M55.73,594.83s5.94-37.53,5.78-42.36-3.75-12.14-3.75-15.72,1.56-26.16,1.56-26.16-2.19-16.5-1.72-18.84,3.91-37.06,3.91-37.06-3.59,30.05-2.89,33.17,1.48,20.24,2,22.42,1.72,21.8,1.88,26.47.78,30.67,0,37.21-2.19,22.95-2,25.72-4.69,0-4.69,0Z"/><path class="cls-13" d="M164.73,355.26s-6.73,25.32,4.71,45.38,42.47,33.63,68.88,33.63,59.9-11.8,74.6-31.46c13.89-18.58,12.09-26.3,10.4-33.08s-8.7-12-14.14-12.83"/><path class="cls-14" d="M132.62,600.91s-.46.72-.28-1.23"/><path class="cls-15" d="M366.73,580.12s1.24,2.83,1.88,4.81,2.53,5.72,2.79,6.68,3,8.07,3,8.07"/><path class="cls-15" d="M370.12,599.68s-.43-1.28-.86-2.89-2-5.5-2-5.93a34.93,34.93,0,0,0-1.07-5.45c-.27-.54-1.88-3.3-1.88-3.3"/><path class="cls-15" d="M362.07,599.68a23.56,23.56,0,0,1-1.24-4.86c-.05-1.61.06-5.14-.32-5.88"/><path class="cls-15" d="M358.47,588.62a32.6,32.6,0,0,0,0,4.06,23.68,23.68,0,0,1,.38,2.94c-.06.53.26,4.12.26,4.12"/><path class="cls-15" d="M354.34,599.68a43.35,43.35,0,0,1-1-5.37"/><path class="cls-15" d="M351.44,597.7a1.22,1.22,0,0,1,.81,1.12v.86"/><path class="cls-16" d="M317.55,528.73s-4.41-.62-6.4-.62-7.47,0-10.15.62-11.54.34-13.1.13"/><path class="cls-16" d="M317.55,528.73s-4.41-.11-6.4-.11a66.54,66.54,0,0,0-10.21,1.63c-2.68.66-11.75.49-13.31.27"/><path class="cls-16" d="M318.76,531.45a69.7,69.7,0,0,0-7.61-1.05A66.54,66.54,0,0,0,300.94,532c-2.68.66-11.75.49-13.31.27"/><path class="cls-16" d="M319.67,532.5s-6.53.37-8.52.37a59.09,59.09,0,0,0-10.21,1c-2.68.65-13.36.67-14.92.46"/><path class="cls-16" d="M281.5,539.22s9.46.48,12,0,10.14-2.72,12.39-2.77a69.71,69.71,0,0,1,12,.53c3.65.7,8.75,2.45,10.47,2.45s9.39,3.16,10.95,3.43,5.79,2.35,7.35,2.35,6.91-1,6.91-1"/><path class="cls-16" d="M281.76,541.6s9.47.48,12,0,10-2.16,12.29-2.21,8.48-.73,12.13,0,8.93,1.68,10.46,2.45c2,1,8.75,3.94,10.31,4.21s6.44,1.62,8,1.57A34.26,34.26,0,0,1,357.61,549"/><path class="cls-16" d="M280.37,544.35s9.46.47,12,0,10-2.16,12.29-2.22a71.91,71.91,0,0,1,12,.62,69.66,69.66,0,0,1,10.95,2.94c2,1,8.53,1.66,10.09,1.93s6.32,2.36,7.83,2.72a129.75,129.75,0,0,0,15.24,2"/><path class="cls-16" d="M275.2,546.76s8.81,1.57,11.41,1.29c2.9-.32,18.52-3.75,20.77-3.8s5.05,1.12,8.7,1.82,13.38.62,14.91,1.39c2,1,5.64,1.76,6.93,2.67,1.5,1.07,3.7,2.82,5.26,2.78,6.63-.15,21.26,4.15,21.09,4.86"/><path class="cls-16" d="M273.52,549s8.32,4.22,10.57,5.66a30.25,30.25,0,0,0,7.78,3.1,35.74,35.74,0,0,1,6.71,1.44c1.56.65,5.9,2.73,7.08,3.11A31.3,31.3,0,0,0,310,563"/><path class="cls-16" d="M309.26,565s-7.14-.21-10.2-.59a35,35,0,0,1-9.12-2,70.4,70.4,0,0,0-9.07-3.21c-2-.42-7.19-3.2-7.35-3.63"/><path class="cls-16" d="M269.72,559.21a9.51,9.51,0,0,1,2.73.76c1,.53,6.3,3.47,7.92,4.06s13.81,3.74,16,4.06,10.73,1.82,13.68,2.67,9.39,3.64,14,4.17,16.37,1,18.19,1.12,8.53.7,12.45,1.82,9,4.11,9.61,3.74-.49-1.44-3.12-2.94-14.49-5.3-15.77-5.51-14.92-4.54-16.69-5.55-16-6.63-17.54-7.32-19.55-7.75-19.38-7.43,2.62-1.29,6-.91a25.49,25.49,0,0,1,7.19,1.82c1.18.53,11.43,5.29,13.26,5.71s13.84,5.67,15.94,6.26,10.89,4.7,12.82,5.24,8.37,1.81,10.9,2.78,7.88,3.52,8.64,4.43,1.88-2,1.88-2-1.56-.69-3.49-1.71-11.65-5.07-13.85-5.66-12.88-4.28-14.22-5-6.17-2.14-10.09-3.9-9.15-4.6-9.15-4.6"/><path class="cls-16" d="M329.6,556.38s8.48,3.85,10.41,4.76,8.21,3.8,12.13,5.08,3.92.59,7.08,2,9.93,6.25,9.93,6.25l1-1.12s-5-2.94-6.44-3.58-6.71-3.15-7.84-3.69-7.46-3.47-8-3.79-4.23-2.67-4.23-2.67"/><path class="cls-16" d="M359.11,587.44s-2.79-1.12-3.91-1.39-7.73-1.55-9-1.87-6.55-1.34-7.57-1.66a67.84,67.84,0,0,0-8.15-.88c-1.51,0-10.9-1.1-12.24-1.52s-8.64-2.52-10.3-3-7.62-2.46-9.18-2.62a36.27,36.27,0,0,1-6.55-1.71c-2.14-.74-7-.69-7.88-1.17s-9.34-4.06-10-4.12-6.81-2.06-6.81-2.06,4.4,2,5.74,2.54,5.52,2.89,6.54,3.32,9.4,3.85,10.52,4.11,8.86,2.73,10.68,2.94,5.31,2.14,8,2.3,7.89,1.23,9.76,1.23,7.63,2.51,8.81,2.73,7-.22,8.05-.16,6.11.32,7.08.48,8.26,2.72,9.2,3.15,4.26,1.82,4.26,1.82"/><path class="cls-16" d="M349.67,597.7a39.37,39.37,0,0,0-5.74-1.71c-2.42-.43-12.94-2.35-14.81-2.78s-11.22-2.88-13-3.31-8.59-3.53-10.14-3.8-8-2.67-8.91-2.67-3.44-1.18-3.92-.43,2.47,2,3.86,2.62,8.7,1.93,10,2.46,8.21,3,9.18,3.26,7.67,2.25,8.9,2.57,10.25,2.86,11.65,3.09,8,1.67,8.91,1.69a23.21,23.21,0,0,1,3.11.58"/><path class="cls-16" d="M328.1,599.68s-14.64-4.06-17-4.22-13.91-2.89-15-3.1-4.62-2.25-6.28-2.46-6.6-1.23-7.19-1.28-3.17-.65-3.39,0,2.63,2.15,3.65,2.28,11,2.58,12,2.69,10.68,3.9,11.54,4.11,5.53,2,5.74,2l-4.45.06s-3.43-.86-5-1-8.53-2.27-9.66-2.27a52.31,52.31,0,0,1-8.37-2.24c-1.08-.49-8.16-2.73-10.15-2.62s-4.51.42-6.33.32-6.17-1.23-7.35-1.29a26.75,26.75,0,0,1-3.7-.69l-1.29,2.51a18.73,18.73,0,0,1,2.68,0c1.34.11,6.55,1.56,7.73,1.77s2.54.37,3.39.48,2.83.64,4,.69a62.68,62.68,0,0,1,7.3.53c1.67.38,5.42,1.13,6.6,1.45s4.46,1.07,6.12,1.36,4.24,1,4.24,1"/><path class="cls-16" d="M286,599.68a11.81,11.81,0,0,0-3.17-1c-1.66-.24-3.11-1.15-4.29-1a10.62,10.62,0,0,1-4,0c-2.53-.32-5.69-.37-7.3-1A15.47,15.47,0,0,0,263,595.3c-1,0-5.32-1-6-1s-2.2-.13-2.2-.13"/><path class="cls-16" d="M264.42,573.66a7.06,7.06,0,0,1,3.36,0,23.33,23.33,0,0,1,3.75,1.81"/><path class="cls-17" d="M241.38,599.47a36,36,0,0,1-5.78.21c-1.19-.25-8.16,0-9.35-.41s-7.52-.71-8.57-.25a18.26,18.26,0,0,1-3.62.72"/><path class="cls-17" d="M253.34,594.45s-4-1.46-6.79-2.14-5.22-1.41-6.87-1.3-3,.29-4,.25a5.31,5.31,0,0,0-2.61.13,55.51,55.51,0,0,1-6.23,2.64,41.88,41.88,0,0,1-7.8,2.2c-1.64.23-6.18.41-7.56.46s-7,.13-8.57.82"/><path class="cls-17" d="M256.36,589.11a26.11,26.11,0,0,1-3.76-1c-1-.46-3.43-2.38-4.63-2.42a21.31,21.31,0,0,1-5.4-1.42,29.64,29.64,0,0,0-6.56-1.52c-.91.06-7.15-.44-8.89-.49s-6.42-.23-7.24-.23a21.44,21.44,0,0,1-4.54-.39,36.78,36.78,0,0,0-5.59-1.52c-.92,0-6.51-1.24-8.2-1.14s-7-.37-7.84-.32-9.17,0-9.53-.64,3.8-1.33,5.5-1.42,3.89.55,5,.55,4.35-.37,5.82-.27,4.58,1.23,6.05,1.23,4.72.46,5.18.46,1.56,1,2.61,1,6.23.86,8.52,1,6.19.6,7.43.6,5.18.86,6.28.77,5.22.19,6.09.19,6.42.22,7.47.32,3.12.31,3.49.4-1.19.42-1.29-1,0-3.29-1-3.52a51.21,51.21,0,0,0-5.6-1.28c-2.38-.32-9-1.87-9.67-2.32s-3.62-1.37-4-1.74a7.28,7.28,0,0,0-4.77-.77,94.12,94.12,0,0,1-11.78,1.18c-1.65-.13-10.72-1.05-13.06-.73a122.3,122.3,0,0,1-12.24.73,41.69,41.69,0,0,1-7.28-.73c-1.47-.41-5,.14-6.28.14s-5.73.09-6.65,0-5.5-.59-6.51-.31L158.42,574"/><path class="cls-17" d="M231.34,572.15a12.71,12.71,0,0,1,4.35,0c1.42.25,5.87,1.2,7.2,1.3s5.22,1.42,6.23,1,1.85-2.07,1.48-2.5-3-.84-3.7-.88-6.44-1.14-7.31-1-4.81-1-6.1-1.27a23,23,0,0,0-4.67-.69c-1.61,0-2.66-1.37-3.58-1.05s-6.37,1-7.06,1.6-2.52.87-2.7.14a4.35,4.35,0,0,0-2.52-2.33c-.83-.05-3.25-1.28-4.49-1.23A33.4,33.4,0,0,0,201,567c-1,.59-2.7.22-4,.22s-4.91-1.18-6.14-1.27-5.92.36-7.38-.05-3,.78-4.36.85-8.2.21-9,0a39.42,39.42,0,0,0-6.05-.67c-1.69,0-4.22-.64-6-.36s-10.08.55-11,.73a33.82,33.82,0,0,1-3.5.23s13.86-.77,15.18-1.26-.18-1,1.15-1,4-.41,6.19,0a25.86,25.86,0,0,0,6.41.58c2.25-.12,7.29-.07,8.71-.48S184,563.18,187,563s7.79.92,9.76,1.24a38.3,38.3,0,0,0,7,.5c1.65-.14,3.71-1.05,4.49-1s5.37.09,5.87.41.55,2.74,1.42,2.88a17.26,17.26,0,0,0,5.22-.25c1.61-.44,2-1.26,4.18-1.12s3.3,1.19,4.58,1.12,5.64-.71,7.52-.85,9.17-.13,9.17-.13"/><path class="cls-17" d="M138.8,585.28a13.53,13.53,0,0,1,3.62,0c3.12.18,4-.45,5.37,0a34.59,34.59,0,0,0,6.28,1c1.65.05,7.47.91,9.71.91s6.28-.32,7.29-.23a49.36,49.36,0,0,0,7.1-.41c1.7-.27,6.24,1.4,7.57,1.14a29.33,29.33,0,0,1,3.52-.91c.88,0,7.54-.09,8.54.05s4.3-.14,5.12-.09,8.34.5,8.8.27,2.57-2.28,2-2.51a71.67,71.67,0,0,0-8.66-.78c-2.39,0-4.68.64-6.74.64s-7.43-.5-8.8-.27-10.54.59-11.14.46-5-1-6.23-1.15-9.12-.13-10.59,0-9,.32-9.58.28-6.69-.18-7.56-.14a40.16,40.16,0,0,1-5.65-.26"/><path class="cls-17" d="M176.75,599.74A50.78,50.78,0,0,1,181.7,598c1.15-.23,4.08-2.88,5.32-3.06a21.67,21.67,0,0,0,4.63-2.1,44.21,44.21,0,0,1,4.9-2.56c.69-.14,3.58-1.87,3.58-2.24v-1.18"/><path class="cls-17" d="M186.33,600c.87-.59,2.52-2,3.39-2s4.91-2.5,5.59-2.82,3.3-2.21,4-2.52,3.43-3.43,3.89-3.52,2.61-1.51,2.43-1.87-.73-.41-.73-.41"/><path class="cls-17" d="M215.53,556.11s-3.4.13-4.72,0-7.34-.42-8.44,0-4.5-.07-5.27.06-5.91-.57-6.55-.57-4.08-.37-4.77.34-4.77,1.26-5.73,1.76"/><path class="cls-17" d="M187.43,552.68a18.11,18.11,0,0,1,4.54-.41c1.88.18,4.54,0,6.51.41a28.78,28.78,0,0,0,7.2,0,52.46,52.46,0,0,1,7.92.24c1.33.26.35-2.56,0-2.52s-3.25-.32-4,0a24.85,24.85,0,0,1-5.23.91c-1.33.05-4.58.29-4.58.29"/><path class="cls-17" d="M210.81,546.43a18.26,18.26,0,0,1-2.94.5,21,21,0,0,1-5,.18c-1-.18-7.06-2.28-8.71-2s-6.05,2.56-6.6,3.34a37.61,37.61,0,0,1-4.3,4.93c-1.15.86-7.47,3.47-10.32,3.47s-9.21-1.56-10.31-1.56-5.22-1.27-6.14-1.37-2.8-.31-2.8-.31"/><path class="cls-17" d="M223.32,576.05c.41,0,7.1-.22,7.79,0a2.79,2.79,0,0,1,1,.6"/><path class="cls-17" d="M227.21,578.75a22.35,22.35,0,0,1,5.37-.46,35.85,35.85,0,0,1,4.72,1"/><path class="cls-17" d="M208.56,596.79a3,3,0,0,0,2.8-1.33c1-1.56,1.87-5.37,2.47-5.56s2.2-4.35,4.08-5.17a32.5,32.5,0,0,0,4.45-2.63"/><path class="cls-17" d="M229.51,582.39a4.56,4.56,0,0,1-1.79,2.84c-1.74,1.55-5.73,6-6.47,6.62s-4.35,2.87-4.9,3.61a9.08,9.08,0,0,1-.89,1"/><path class="cls-17" d="M221.21,595.69a39.38,39.38,0,0,0,3.71-3.93c1-1.42,1.83-2.74,2.82-3s3.51-2.65,4.1-2.88,4.26-2.83,4.68-2.83a6.6,6.6,0,0,0,1-.13"/><path class="cls-17" d="M242.17,584.1a6.36,6.36,0,0,1-2.49,1.91c-1.38.45-3.12.09-4.35,1.14s-3.67,1.6-4.82,3.4a14.5,14.5,0,0,1-3.3,3.34"/><path class="cls-17" d="M236.52,590.8c.68-.46,2.75-2.32,4.86-2.48s5.49,0,7.1-.21a7.86,7.86,0,0,0,2.73-.84"/><path class="cls-17" d="M243.34,591.51s.65-1.07,3.56-1,3.24-.13,3.79,0,1.91,1.17,2.65,1.17a12.4,12.4,0,0,0,1.88-.23"/><path class="cls-16" d="M113.86,592.66a29.34,29.34,0,0,1,4.41-7.38c2.57-2.83,9.63-10.09,10.5-11.14s3.48-3,4.26-4,0-2.65,0-2.65a6.31,6.31,0,0,0-2.29,1.65c-.46.82-3.53,4.12-4.45,5.42a115.05,115.05,0,0,1-8,8.5c-.69.46-3.58,1.77-3.95,2.46a32.35,32.35,0,0,1-3.25,4.11,19.17,19.17,0,0,1-2.89,1.19,2.43,2.43,0,0,1,.78-2.19c1-.73,4.54-4.38,5.64-5a32.5,32.5,0,0,0,4.49-3.83c.55-.6,4.63-4.5,5.13-5.26s3.85-3.92,3.9-4.19,1.65-3.19,1.42-3.21-1,.24-1,.47-2.2,2.46-2.56,2.92-5,6.12-5.46,6.53a50.76,50.76,0,0,1-4.63,3.79,28.6,28.6,0,0,0-4.67,3.65c-.6.73-4.31,3.61-4.58,4.11s-1.29,1.94-1.29,1.94"/><path class="cls-16" d="M84.49,590.84s4.81-2,7.2-3.15,11.82-8.07,13.24-9.31,6.24-6.53,8.39-7.53,6.88-4.48,8.25-4.59,4.33-1.25,4.94-.73-3.74-4.86-3.74-4.86a13.34,13.34,0,0,0-3.39,1.23c-1.25.78-6.65,3.29-7.39,3.93s-3.11,1.41-3.62,1.73-4.63,2.19-6.32,4.2-6.28,6.64-7.89,8.14a66.54,66.54,0,0,1-6.87,5.83c-2,1.28-3.26,2.42-4.58,3.38a5.29,5.29,0,0,1-3.4.64s1.84-1.34,2.94-2.06,6.6-5.29,7.47-6.2S99.3,572.17,101,570.9s6.33-5.16,9.86-6.71,9.67-4,10.49-4.39a1.27,1.27,0,0,0,.64-1.37,14.9,14.9,0,0,1-2.84,1.1c-.69.05-4.26,1.23-5,1.46a25.56,25.56,0,0,0-5.77,2.42c-1.56,1.1-6.47,3.88-8.25,5.66s-4.73,4.7-6.1,5.84-5.45,5.53-6.78,6.35-4.4,4.24-5.69,4.88-3.66,3.43-3.66,3.43"/><path class="cls-16" d="M77.53,583.81A21.79,21.79,0,0,0,83,580.94a135.91,135.91,0,0,0,9.9-10.36c1-1.42,6.32-8.22,7.29-8.49s6.53-5.48,7.41-5.85,4.82-3.06,5.33-3.06.45-1.22.45-1.22a22.48,22.48,0,0,0-3.84,1.68c-1.06.73-8,5.2-8.12,5.52s-4.72,4.71-5,5.21S91,571.54,89.58,573s-4.81,4-6,4.29a4.36,4.36,0,0,1-1.74.14l2.83-4.77a1.49,1.49,0,0,0,1.75-.12c1.06-.69,4.77-4.1,5.41-4.65s3.85-4.48,4.54-4.94,5.91-6.48,6.92-6.75,8.25-5.72,9.17-5.57,1-2.83,1-2.83a4.64,4.64,0,0,0-1.77.23c-1,.32-2.45,0-4.18.91s-7.5,3.52-8.15,4a9.5,9.5,0,0,1-2.43.88l2.64-3.68s1.81-.52,3-.7,3.2-1.57,4-1.65,5.13-1.59,5.82-1.41,1.11-1.59,1.11-1.59a3.67,3.67,0,0,0-1.38,0c-.83.13-2.3-.24-3.08.29a28.76,28.76,0,0,1-3.07,1.53"/><path class="cls-15" d="M72.67,594.72a17.75,17.75,0,0,1,.32,3.89c-.14,1.5-.15,4-.15,4l7-2a35.05,35.05,0,0,0,1.29-3.43c.23-.95,2.06-4.22,2.79-4.48a7.53,7.53,0,0,1,2-.26,9.3,9.3,0,0,0-1.83,2A45,45,0,0,0,82.93,600c0,.37,12.06.28,12.06.28a23.7,23.7,0,0,0,1.28-2.76c.32-1,.73-3.36,1.38-3.54s4-1.29,4-1.29a2,2,0,0,1-.27,2.2c-.87,1.33-2.06,2.49-2,3.65a2.65,2.65,0,0,1-.55,1.88l20.85-.14a11.89,11.89,0,0,1,0-1.64,28.37,28.37,0,0,1,.32-3.15l.87.23a5.06,5.06,0,0,0,.37,1.55,21.9,21.9,0,0,0,1,2.5l3.44.46s0-3.69.5-4,4.45,0,4.45,0-1.15,2.81-.78,3.55,2.75,1.17,2.75,1.17-.5-3.24,0-4.09,6.6-.42,6.6-.42a16.39,16.39,0,0,1-.65,2.52c-.45,1.33-.82,2.56-.82,2.56l7-.57s-1.14-.25-1.1-.94.37-2.19.37-2.19.59.19.73.55.55,1.41.55,1.41l.92.69"/><polyline class="cls-18" points="121.54 529.52 125.48 531.58 124.76 526.71"/><polyline class="cls-18" points="132.28 520.82 129.65 523.03 132.09 526.71 134.84 524.81"/><line class="cls-18" x1="133.37" y1="523.76" x2="131.25" y2="525.44"/><path class="cls-18" d="M139.51,521.38l-2.16-3.65s2.1-2.24,3.22-.94a1.66,1.66,0,0,1,0,2.34l1.85.81-1.85-.81-1.67,1.21"/><polyline class="cls-18" points="147.24 516.76 145.08 512.9 148.68 514.33 149.81 510.25 151.81 514.36"/><line class="cls-18" x1="154.69" y1="507.1" x2="156.64" y2="511.34"/><polyline class="cls-18" points="159.52 503.67 161.27 507.38 163.74 505.91"/><path class="cls-18" d="M167,500l1.35,4.39a9.26,9.26,0,0,1,1.12-.28,6.84,6.84,0,0,1,.82,0"/><path class="cls-18" d="M173.39,498.46a4.34,4.34,0,0,0,.12,1.31c.16.18,1.13,3,1.13,3"/><path class="cls-18" d="M183.59,497.93c0,1.24-.79,2.68-2,2.68s-2.54-.76-2.54-2a2.67,2.67,0,0,1,2.44-2.52C182.71,496.09,183.59,496.69,183.59,497.93Z"/><polyline class="cls-18" points="189.23 498.18 188.35 494.03 192.64 497.02 191.67 492.81"/><path class="cls-18" d="M203.35,487.92a1.86,1.86,0,0,0-1.66.78,4,4,0,0,0-.84,2.74c.18.94.61,1.68,1.23,1.65s1.74-1.27,1.83-1.74"/><path class="cls-18" d="M208.67,486.26a2.21,2.21,0,0,1,.25.78v3.46a7.69,7.69,0,0,0,1.16.29c.25,0,.6.56,1,.4"/><path class="cls-18" d="M215.28,486.79s.13,3.65,0,4a3,3,0,0,0-.13.84"/><path class="cls-18" d="M220,492.41v-4.62h1.47a4.77,4.77,0,0,0,1.09-.28"/><path class="cls-18" d="M222.64,490.19c-.19.32-.5.31-.78.31H220"/><path class="cls-18" d="M227.08,491.22l.51-4.24a4,4,0,0,0,1.59-.19l.75-.53"/><path class="cls-18" d="M229.37,489s-.09.31-.63.43a4.94,4.94,0,0,1-1.44,0"/><path class="cls-18" d="M237.13,486.92s-.53-.84-1.12-.66-1.19.5-1.22,1,.28.75,1,1.28,1.37.87,1.37,1.39-.65,1.29-1.17,1.26a4.48,4.48,0,0,1-1.55-.87"/><path class="cls-18" d="M246.56,491.91s.28.09.16.5a5.52,5.52,0,0,1-.69,1.12"/><polyline class="cls-18" points="253.89 492.41 255.51 487.67 256.49 492.72"/><line class="cls-18" x1="256.14" y1="491.66" x2="254.19" y2="491.66"/><path class="cls-18" d="M260.43,492.81l1.5-4.9s2.51.77,2.19,2a2.6,2.6,0,0,1-1.53,1.7l.47,1.87-.47-1.87-1.71-.63"/><line class="cls-18" x1="269.85" y1="490.19" x2="268.41" y2="494.5"/><polyline class="cls-18" points="274.27 493.1 275.99 494.65 273.17 496.9 274.99 498.83"/><path class="cls-18" d="M282.22,500.8c0,1.41-.62,2.12-1.63,2.12a2.25,2.25,0,0,1-2.16-2.28c0-1.41.82-2.56,1.82-2.56S282.22,499.38,282.22,500.8Z"/><polyline class="cls-18" points="285.57 506.19 287.36 502.48 289.14 507.35 290.8 503.6"/><polyline class="cls-18" points="293.15 510.03 296.88 506.81 296.63 511.59"/><line class="cls-18" x1="294.37" y1="509.2" x2="296.88" y2="510.62"/><path class="cls-19" d="M218.6,558.74s-.52-23.82,21.28-33.76c24.82-11.32,35.32,21.46,35.32,21.46"/><path class="cls-19" d="M258.25,587.69s-1.79-4.34-2.63-4.86-6.05-12.15-7.3-14.23-10.95-13-12.41-13.4-15.22,3.85-17.31,3.54-4.9-7.23-5.11-8.6-4.9-7.61-5.94-8.23-3.65-5-10.74-3.29-10.12-.76-12.2.59-8.66,7.48-10.54,7.89-5.21-5.71-10.42-2.28-11,10.9-13.25,13.29-7.92,10.6-10.11,11.84-2.94,1.78-2.94,1.78"/><path class="cls-20" d="M74.39,590s11.35-19.11,13.2-22.25,20.78-31.48,23.94-31,1.63,15.5,1.84,15.91S120,550,121,551.53s1.84,10.13,1.84,10.13,3.95,4.82,5.79,5.34,5-.52,5.53.52,4.48,7.61,4.22,10.76,2.37,17.41,2.37,17.41"/><path class="cls-21" d="M151.27,599.74c0-.1-3.57-1.41-4.06-1.78s-1.83-1.1-5.51-1.38-13.11-.84-18.21-1.46-11.32-3.24-14.81-4-11.22,1.79-13.3,1.88-8.11-1.13-10.66-1.6-8.58-1.12-10.33-.75-4.76,9-4.76,9"/><path class="cls-22" d="M253.54,599.68s-3.24-.54-2.92-1.06,5.21-6.75,5.52-7.37,3.45-5.82,3.76-6.13a44.07,44.07,0,0,0,3.13-5c0-.31,2.19-11,3.23-12.15s2.92-6.23,3.13-7.06,1.56-9,2.4-10,3-4.78,4.79-5.61,4.17-2.81,4.38-3.64.63-3.73,1.46-4.88,3.86-3.74,4.07-4.67.52-4.68,1.36-4.78,3.23-4.08,4.58-4.17,4.38-.71,5-1.23,3.13-3.33,4.17-3.22,5.11,1.76,5.74,1.76,5.21-.1,5.94.83,3.44,6.76,4.69,7.9,6.47,6.65,8.24,7.58a67.42,67.42,0,0,0,10.53,3.32c1.46.21,7.62,1.67,8.24,1.77s4.9-.21,5.84.21,8,6.44,9.59,8.72,7.3,11.32,7.51,11.95,3.35,9.85,3.76,10.47"/><path class="cls-21" d="M348.54,599.68s5-7.64,6.78-9.13,6.77-5.43,7.71-6.58,6.68-10.49,8.14-10.8,5.52,5.4,6.77,8.21,7,18.36,7,18.36"/></g><g id="Mouth"><path class="cls-23" d="M192.13,308.29a.06.06,0,0,0,0,.11c1.85,1,11.61,6.52,13.5,7.78,2.1,1.38,9.11,6,24,4.89s23.48-6.56,27.41-10.26c3.52-3.31,11.46-11.22,13-12.52.05,0,0-.12,0-.09-3.3,1.35-29.67,13.52-39.9,14.56S195.3,308.93,192.13,308.29Z"/><path class="cls-24" d="M192.12,308.32c-.1,0,0,.09.14.14l.29.16.58.32,1.16.65,2.31,1.29,4.62,2.6c1.54.89,3.08,1.74,4.58,2.7a24.91,24.91,0,0,0,4.68,2.4,35.82,35.82,0,0,0,10.28,2.24,59,59,0,0,0,10.55-.1,49.91,49.91,0,0,0,20.14-5.93,30.21,30.21,0,0,0,4.35-3c1.35-1.13,2.59-2.41,3.86-3.63l7.58-7.42,1.92-1.83.49-.45.25-.23.07-.05s0,0,0,.07a.09.09,0,0,0,.09.09c.08,0,0,0,0,0l-1.21.53L264,301.05c-3.23,1.43-6.48,2.83-9.76,4.17s-6.56,2.63-9.89,3.84a104.59,104.59,0,0,1-10.14,3.19,32.89,32.89,0,0,1-10.6.79c-3.54-.21-7.06-.62-10.56-1.1C206,311,199.05,309.73,192.12,308.32Zm0-.05c7,1.33,13.92,2.5,20.94,3.36,3.5.42,7,.78,10.54.94a33.65,33.65,0,0,0,10.46-.79,102.72,102.72,0,0,0,10.1-3.17c3.32-1.19,6.61-2.48,9.88-3.82s6.53-2.7,9.78-4.09l4.87-2.11,1.22-.52a.37.37,0,0,1,.14,0,.23.23,0,0,1,.21.21.2.2,0,0,1,0,.15l-.05,0-.06.06-.25.21-.49.44L267.44,301l-7.64,7.37c-1.28,1.21-2.52,2.47-3.89,3.6a35.45,35.45,0,0,1-4.37,3,50.14,50.14,0,0,1-20.19,6.15c-7,.73-14.34.41-21-2.24a25.47,25.47,0,0,1-4.7-2.49c-1.47-1-3-1.84-4.53-2.74L196.55,311l-2.3-1.31L193.1,309l-.58-.33-.29-.16-.14-.09C192,308.4,192,308.24,192.13,308.27Z"/><path class="cls-25" d="M227.61,306.19h0c4.37-.37,8.38-2.49,10-2.77s27.8-4.78,32.19-5.29c.11,0,.07.07.05.18-.11.55-26.83,12.93-38.4,14.6-11.88,1.72-36.35-3.85-39.39-4.57-.07,0,0-.14,0-.15,2.88-.32,24-2.67,27.37-2.52C223.06,305.82,227.59,306.19,227.61,306.19Z"/><path class="cls-10" d="M214.85,334.59c0,2.14,12.18,5.13,15.27,4.91s17.23-5.12,16.78-6.3-10.8-1.49-13.79-1.39S214.85,332.46,214.85,334.59Z"/></g><g id="Eyes"><path class="cls-26" d="M279.64,213.86s-8.16,7.52-14.48,8.39a31.52,31.52,0,0,1-12.86-1.4s-4.29,1.1-4.69,1.06-.54-1.26-.54-1.26,0-2.49-.16-2.22a30.63,30.63,0,0,0,2.73-1.94s6.72-5.12,13.75-5.45S279.64,213.86,279.64,213.86Z"/><path class="cls-4" d="M279.64,213.86a52.61,52.61,0,0,1-5.89,4.63,27.08,27.08,0,0,1-6.67,3.4,14.17,14.17,0,0,1-3.71.6,24.72,24.72,0,0,1-3.75-.07,33.58,33.58,0,0,1-7.36-1.47h.06l-3,.75c-.51.12-1,.24-1.54.32a.45.45,0,0,1-.45-.19,1.5,1.5,0,0,1-.19-.38,5.29,5.29,0,0,1-.17-.79h0c0-.78-.05-1.54,0-2.32.57-.35,1.24-.87,1.85-1.31a29.74,29.74,0,0,1,3.89-2.57,26.87,26.87,0,0,1,8.7-3.26,28.35,28.35,0,0,1,9.28.35A65.23,65.23,0,0,1,279.64,213.86Zm0,0a64,64,0,0,0-9-2.19,28.07,28.07,0,0,0-9.23-.32,27.17,27.17,0,0,0-8.63,3.28,29.38,29.38,0,0,0-3.85,2.58,21.53,21.53,0,0,1-1.95,1.36s0,0-.07,0-.1-.1-.09-.11a.24.24,0,0,1,0-.09s0-.08.17-.08.09.11.12.15a1.1,1.1,0,0,1,0,.16l0,.3,0,.58v1.17h0a4.5,4.5,0,0,0,.15.73c.09.23.18.48.38.41.5-.07,1-.19,1.52-.3l3-.74h.06a34.41,34.41,0,0,0,7.3,1.49,25.82,25.82,0,0,0,3.73.09,14.13,14.13,0,0,0,3.67-.58,27.89,27.89,0,0,0,6.66-3.34A51.45,51.45,0,0,0,279.64,213.86Z"/><path class="cls-27" d="M255.93,218a8.39,8.39,0,0,0,1.84,4.13,26.61,26.61,0,0,0,7.39.13,19.06,19.06,0,0,0,5.23-1.68,8.52,8.52,0,0,0,.83-5.14,8.38,8.38,0,0,0-1.52-3.73,23.9,23.9,0,0,0-6.31-.66,19.88,19.88,0,0,0-6.49,1.52A8.63,8.63,0,0,0,255.93,218Z"/><ellipse class="cls-28" cx="263.79" cy="216.87" rx="2.13" ry="2.25"/><path class="cls-29" d="M244,221.69a2.8,2.8,0,0,1,1.16-2.78c1.21-.64,1.67-.7,1.87-.59a6.16,6.16,0,0,1,.71,2.33c0,.46.29,1.22-.75,1.38A10.71,10.71,0,0,1,244,221.69Z"/><path class="cls-4" d="M244,221.7a2.93,2.93,0,0,1,.08-1.58,2.32,2.32,0,0,1,1-1.28,7.34,7.34,0,0,1,1.46-.64,1.19,1.19,0,0,1,.43,0,.31.31,0,0,1,.24.14,1.3,1.3,0,0,1,.11.19,5.56,5.56,0,0,1,.26.75,5.17,5.17,0,0,1,.28,1.56,2,2,0,0,1,0,.8.84.84,0,0,1-.67.47A8.91,8.91,0,0,1,244,221.7Zm0,0a8.65,8.65,0,0,0,3.07.26.7.7,0,0,0,.56-.39,1.66,1.66,0,0,0,0-.74,5,5,0,0,0-.31-1.51c-.08-.24-.17-.49-.27-.72l-.09-.14a.1.1,0,0,0-.09,0,.83.83,0,0,0-.34,0,6.43,6.43,0,0,0-1.4.62A2.78,2.78,0,0,0,244,221.68Z"/><path class="cls-30" d="M264.82,216.11c-.13.13-.64-.36-.5-.5a.35.35,0,1,1,.5.5Z"/><path class="cls-26" d="M168.38,220.49s9,5.92,15.37,5.74a32,32,0,0,0,12.49-3.52,17,17,0,0,0,3.15.85c.4-.1.7-1.59.7-1.59l-1.87-4s-7.39-3.95-14.38-3.11S168.38,220.49,168.38,220.49Z"/><path class="cls-4" d="M168.38,220.49a51.21,51.21,0,0,0,6.55,3.46,26.3,26.3,0,0,0,7.07,2.11,14.63,14.63,0,0,0,3.68-.07,27.9,27.9,0,0,0,3.62-.71,35.08,35.08,0,0,0,6.89-2.66l0,0,.05,0c.79.27,1.6.53,2.4.73a3.31,3.31,0,0,0,.6.11c.14,0,.24-.14.33-.32A6.72,6.72,0,0,0,200,222V222l-1.86-4,0,0a32.1,32.1,0,0,0-7.35-2.64,20.56,20.56,0,0,0-7.77-.38,37.21,37.21,0,0,0-7.53,2.15A62.29,62.29,0,0,0,168.38,220.49Zm0,0a61.59,61.59,0,0,1,7.1-3.39,35.83,35.83,0,0,1,7.54-2.2,20.3,20.3,0,0,1,7.84.34,32.59,32.59,0,0,1,7.42,2.62l0,0,0,0,1.87,4,0,0v0a6.06,6.06,0,0,1-.39,1.23,1.27,1.27,0,0,1-.18.29.44.44,0,0,1-.37.17,4.27,4.27,0,0,1-.64-.12c-.82-.21-1.62-.48-2.42-.75h.09a35.43,35.43,0,0,1-7,2.65,28.29,28.29,0,0,1-3.65.69,14.94,14.94,0,0,1-3.72.06,25.54,25.54,0,0,1-7.09-2.17A50.65,50.65,0,0,1,168.38,220.49Z"/><path class="cls-31" d="M192.23,220.49a8.51,8.51,0,0,1-1.2,4.38,26.68,26.68,0,0,1-7.28,1.35,18.57,18.57,0,0,1-5.42-.79,8.43,8.43,0,0,1-1.58-4.94,8.52,8.52,0,0,1,.95-3.94,24.42,24.42,0,0,1,6.14-1.69,19.72,19.72,0,0,1,6.63.43A8.43,8.43,0,0,1,192.23,220.49Z"/><ellipse class="cls-28" cx="184.49" cy="220.49" rx="2.22" ry="2.34"/><path class="cls-29" d="M204.5,221.49c-.25.85-1.4,1.25-1.91,1.48a8.8,8.8,0,0,1-3,.56c-.34-.15.52-.95.49-1.56s-2.21-4-1.87-4a16.73,16.73,0,0,1,4.3,1.32C203.55,219.93,204.62,221.08,204.5,221.49Z"/><path class="cls-4" d="M204.5,221.49c-.27.8-1.12,1.15-1.83,1.46a11.08,11.08,0,0,1-2.34.63,3.08,3.08,0,0,1-.61,0,.33.33,0,0,1-.18,0,.22.22,0,0,1-.1-.19.81.81,0,0,1,.11-.32A2.86,2.86,0,0,0,200,222a4,4,0,0,0-.45-1.06l-.57-1.06-.57-1.07a4.75,4.75,0,0,1-.25-.56.6.6,0,0,1,0-.16.28.28,0,0,1,0-.1.13.13,0,0,1,0-.11.16.16,0,0,1,.11,0l.32,0a19.2,19.2,0,0,1,2.33.65,6.45,6.45,0,0,1,2.16,1.08,6.2,6.2,0,0,1,.88.82C204.18,220.76,204.51,221.07,204.5,221.49Zm0,0c0-.41-.33-.72-.58-1a6.27,6.27,0,0,0-.9-.8,6.12,6.12,0,0,0-2.17-1,21.32,21.32,0,0,0-2.33-.56,1.57,1.57,0,0,0-.28,0s0,0,0,0l0,0v0l0,.12c.07.18.16.36.25.54l.58,1.05.56,1.07a3.9,3.9,0,0,1,.45,1.17,2.75,2.75,0,0,1-.49,1.14,1,1,0,0,0-.1.25c0,.06,0,.07.13.08a2.94,2.94,0,0,0,.59,0,11,11,0,0,0,2.34-.54C203.37,222.62,204.22,222.29,204.5,221.49Z"/><path class="cls-30" d="M185.69,219.61c-.14.13-.64-.36-.51-.5a.36.36,0,1,1,.51.5Z"/><path class="cls-4" d="M197.53,211.82c-1.94.05-3.87.07-5.8.17s-3.86.15-5.76.36c-1,.1-1.9.23-2.83.41s-1.85.52-2.79.73c-1.89.46-3.79.83-5.66,1.28a20.17,20.17,0,0,0-5.34,1.75,13.89,13.89,0,0,0-3.66,4.18c-.53.8-1,1.63-1.57,2.46a2.93,2.93,0,0,1-.53.61c-.17.13-.36.3-.54.46l-1.09,1a23.7,23.7,0,0,1-2.33,1.76,5.2,5.2,0,0,1-2.71,1,5.55,5.55,0,0,0,2.56-1.23,24.26,24.26,0,0,0,2.16-1.9l1-1c.18-.17.34-.34.55-.52a2.41,2.41,0,0,0,.38-.5c.49-.79.94-1.67,1.43-2.5a19.85,19.85,0,0,1,1.64-2.46,9.14,9.14,0,0,1,2.2-2.09,20.65,20.65,0,0,1,5.6-2c1.9-.42,3.81-.76,5.68-1.18.95-.2,1.81-.48,2.82-.7a21,21,0,0,1,2.93-.33A83.55,83.55,0,0,1,197.53,211.82Z"/><path class="cls-4" d="M249.92,210.75a27.56,27.56,0,0,1,5.47-2.91,15.32,15.32,0,0,1,3-.88c1.09-.17,2.08-.13,3.11-.2,2-.06,4.12-.09,6.18,0a16.36,16.36,0,0,1,6.07,1.26,32.61,32.61,0,0,1,5.43,3,43.7,43.7,0,0,1,5,3.76,10.24,10.24,0,0,1,2.05,2.45c.27.44.48.72.85.84a5.85,5.85,0,0,0,1.4.13c2.06.08,4.11.18,6.16.34a.06.06,0,0,1,.05.06.07.07,0,0,1-.05,0c-2.05.17-4.1.27-6.16.35a6.77,6.77,0,0,1-1.65-.08,2.06,2.06,0,0,1-.85-.48,4.58,4.58,0,0,1-.56-.66,10,10,0,0,0-2-2.2,60.28,60.28,0,0,0-9.92-7.06,12.28,12.28,0,0,0-5.84-1.43,50.47,50.47,0,0,0-6.12.49c-1,.12-2.09.12-3,.25a18.94,18.94,0,0,0-2.9.73,57.36,57.36,0,0,0-5.68,2.26,0,0,0,0,1-.07,0A0,0,0,0,1,249.92,210.75Z"/><path class="cls-4" d="M241.54,212.77a19.64,19.64,0,0,0-1.84,5.28,7.49,7.49,0,0,0,0,2.67c.17.92.36,1.83.61,2.72a9.17,9.17,0,0,0,2.64,4.63,16.78,16.78,0,0,0,4.85,2.73,12.46,12.46,0,0,1-5.35-2.13,8.13,8.13,0,0,1-2-2.23,12.21,12.21,0,0,1-1.13-2.73c-.24-.94-.43-1.89-.58-2.84a7.83,7.83,0,0,1,.19-3A13.65,13.65,0,0,1,241.54,212.77Z"/><path class="cls-4" d="M206,214.21a13.12,13.12,0,0,1,4.84,4.75,10.84,10.84,0,0,1,1.3,3.23,14.51,14.51,0,0,1,.26,3.47,30.29,30.29,0,0,1-1.15,6.72c-.31,1.09-.65,2.17-1,3.23s-.8,2.11-1.3,3.13c.58-2.18,1.12-4.36,1.57-6.54a43.71,43.71,0,0,0,.9-6.58,12.11,12.11,0,0,0-1.23-6.3,13.69,13.69,0,0,0-1.81-2.74A16,16,0,0,0,206,214.21Z"/></g></svg>